<svg data-v-fde0c5aa="" xmlns="http://www.w3.org/2000/svg" viewBox="0 0 300 300" class="iconLeftSlogan"><!----><defs data-v-fde0c5aa=""><!----></defs><rect data-v-fde0c5aa="" fill="transparent" x="0" y="0" width="300px" height="300px" class="logo-background-square"></rect><defs data-v-fde0c5aa=""><!----></defs><g data-v-fde0c5aa="" id="2f1e53df-ac25-4d5c-88d2-ba24a4ff86c5" fill="#000000" transform="matrix(1.3896261947739288,0,0,1.3896261947739288,111.4211664032979,132.46822644633485)"><path d="M4.79 6.24L6.28 6.21L4.77 2.05L3.30 6.21L4.79 6.24ZM8.96 10.07L9.66 10.23L9.66 10.58L8.14 10.54L6.62 10.57L6.62 10.22L7.52 10.07L6.49 6.86L4.83 6.83L3.10 6.86L2.13 10.07L3.03 10.22L3.03 10.57L1.67 10.53L0.31 10.57L0.31 10.22L1.00 10.07Q1.79 8.19 2.67 5.80L2.67 5.80Q2.92 5.09 3.18 4.37Q3.43 3.66 3.68 2.94Q3.93 2.23 4.18 1.51L4.18 1.51L4.68 1.36Q4.87 1.29 5.06 1.21Q5.24 1.13 5.37 1.06L5.37 1.06L5.66 1.22Q6.01 2.24 6.40 3.38Q6.80 4.53 7.22 5.65L7.22 5.65Q7.57 6.58 8.07 7.84L8.07 7.84Q8.52 9.00 8.96 10.07L8.96 10.07ZM12.42 3.88L12.42 7.82L12.49 10.07L13.54 10.22L13.54 10.57L11.89 10.53L10.50 10.57L10.50 10.22L11.33 10.07L11.37 7.83L11.37 3.87L10.52 3.94L10.52 3.54L11.37 3.31L11.37 2.90Q11.37 1.72 12.31 0.91Q13.26 0.10 14.24 0.10L14.24 0.10Q14.80 0.10 15.17 0.23L15.17 0.23L15.50 0.36L14.93 1.80L14.63 1.73L14.68 1.01L14.26 0.83Q14.01 0.75 13.61 0.75L13.61 0.75Q13.12 0.75 12.75 1.16L12.75 1.16Q12.42 1.56 12.42 2.31L12.42 2.31L12.42 3.31L13.89 3.29L13.62 3.93L12.42 3.88ZM16.61 3.88L16.61 7.82L16.68 10.07L17.73 10.22L17.73 10.57L16.09 10.53L14.69 10.57L14.69 10.22L15.53 10.07L15.56 7.83L15.56 3.87L14.71 3.94L14.71 3.54L15.56 3.31L15.56 2.90Q15.56 1.72 16.51 0.91Q17.46 0.10 18.43 0.10L18.43 0.10Q18.99 0.10 19.36 0.23L19.36 0.23L19.70 0.36L19.12 1.80L18.83 1.73L18.87 1.01L18.46 0.83Q18.21 0.75 17.80 0.75L17.80 0.75Q17.31 0.75 16.94 1.16L16.94 1.16Q16.61 1.56 16.61 2.31L16.61 2.31L16.61 3.31L18.09 3.29L17.81 3.93L16.61 3.88ZM20.33 0.98L20.33 0.98Q20.33 0.68 20.53 0.48Q20.73 0.27 21.07 0.24L21.07 0.24Q21.36 0.24 21.58 0.46L21.58 0.46Q21.79 0.67 21.79 0.97L21.79 0.97Q21.79 1.27 21.60 1.47Q21.40 1.67 21.07 1.70L21.07 1.70Q20.78 1.70 20.54 1.49L20.54 1.49Q20.33 1.25 20.33 0.98ZM21.59 5.03L21.59 7.82L21.64 10.07L22.45 10.22L22.45 10.57L21.07 10.53L19.67 10.57L19.67 10.22L20.51 10.07L20.54 7.83L20.54 6.33L20.47 3.97L19.56 3.82L19.56 3.47Q19.86 3.43 20.14 3.39Q20.41 3.35 20.46 3.34L20.46 3.34L21.35 3.11L21.61 3.11L21.59 5.03ZM24.93 6.97L24.93 7.82L25.00 10.07L25.96 10.22L25.96 10.57L24.40 10.53L23.02 10.57L23.02 10.22L23.84 10.07L23.88 7.83L23.88 6.29L23.82 3.93L22.91 3.78L22.91 3.43Q23.17 3.43 23.32 3.41Q23.47 3.40 23.82 3.32Q24.18 3.25 24.65 3.11L24.65 3.11L24.93 3.11L24.82 5.29Q25.30 4.21 25.87 3.65L25.87 3.65Q26.13 3.38 26.43 3.25Q26.74 3.11 27.07 3.11L27.07 3.11Q27.20 3.11 27.33 3.13Q27.46 3.16 27.60 3.20Q27.74 3.24 27.85 3.32L27.85 3.32Q27.58 3.81 27.39 4.25L27.39 4.25Q27.36 4.34 27.27 4.57Q27.19 4.80 27.15 4.91L27.15 4.91Q26.92 4.86 26.87 4.79L26.87 4.79Q26.87 4.69 26.89 4.66L26.89 4.66Q26.89 4.15 26.80 4.10Q26.70 4.06 26.58 4.06L26.58 4.06Q25.93 4.13 25.44 4.96L25.44 4.96Q25.21 5.39 25.07 5.90Q24.93 6.41 24.93 6.97L24.93 6.97ZM39.28 5.33L39.28 7.82L39.34 10.07L40.21 10.22L40.21 10.57L38.76 10.53L38.19 10.57L38.19 10.22L38.23 10.07L38.23 6.11Q38.23 5.06 37.90 4.52Q37.56 3.97 36.81 3.97L36.81 3.97Q35.92 3.97 35.40 4.72L35.40 4.72Q35.15 5.10 35.01 5.58Q34.87 6.06 34.87 6.68L34.87 6.68L34.87 7.82L34.95 10.07L35.77 10.22L35.77 10.57L34.35 10.53L32.91 10.57L32.91 10.22L33.79 10.07L33.83 7.83L33.83 6.11Q33.83 5.09 33.49 4.53Q33.15 3.97 32.37 3.97L32.37 3.97Q31.44 3.97 30.94 4.80L30.94 4.80Q30.72 5.21 30.59 5.71Q30.45 6.22 30.45 6.79L30.45 6.79L30.45 7.82L30.53 10.07L31.35 10.22L31.35 10.57L29.93 10.53L28.55 10.57L28.55 10.22L29.37 10.07L29.41 7.83L29.41 6.29L29.35 3.93L28.44 3.78L28.44 3.43Q28.71 3.43 28.86 3.41Q29.00 3.40 29.38 3.32Q29.76 3.25 30.25 3.11L30.25 3.11L30.55 3.11L30.43 4.63Q30.95 3.96 31.62 3.53Q32.29 3.11 32.81 3.11L32.81 3.11Q33.68 3.11 34.11 3.51Q34.54 3.91 34.74 4.75L34.74 4.75Q35.09 4.27 35.76 3.69Q36.42 3.11 37.33 3.11L37.33 3.11Q38.21 3.11 38.75 3.72Q39.28 4.34 39.28 5.33L39.28 5.33ZM45.36 6.64L45.36 6.64L44.67 6.61Q44.00 6.61 43.42 6.79Q42.85 6.96 42.42 7.24L42.42 7.24Q42.02 7.53 41.82 7.87Q41.62 8.21 41.62 8.65L41.62 8.65Q41.62 9.13 41.95 9.51L41.95 9.51Q42.32 9.88 42.91 9.88L42.91 9.88Q44.04 9.88 44.67 9.00L44.67 9.00Q44.99 8.54 45.18 7.95Q45.36 7.35 45.36 6.64ZM45.35 8.79L45.35 8.79Q44.72 10.00 44.01 10.37Q43.31 10.74 42.67 10.74L42.67 10.74Q41.69 10.74 41.09 10.15Q40.49 9.57 40.49 8.78L40.49 8.78Q40.49 7.64 41.69 6.84Q42.89 6.04 44.79 6.04L44.79 6.04L45.42 6.04L45.42 5.58Q45.42 4.60 45.01 4.19L45.01 4.19Q44.62 3.77 43.79 3.77L43.79 3.77Q43.12 3.77 42.51 3.99L42.51 3.99L41.88 4.24L41.92 4.98L41.63 5.08L41.01 3.67Q41.31 3.54 42 3.32Q42.69 3.11 43.95 3.11L43.95 3.11Q44.99 3.11 45.66 3.61Q46.34 4.11 46.34 4.96L46.34 4.96L46.34 8.22Q46.34 9.01 46.41 9.44L46.41 9.44Q46.48 9.70 46.55 9.85L46.55 9.85Q46.59 9.94 46.71 10.06L46.71 10.06L47.25 10.22L47.25 10.58L46.53 10.56L46.12 10.54Q46.00 10.54 45.89 10.54Q45.78 10.54 45.62 10.57L45.62 10.57Q45.50 10.57 45.43 10.04L45.43 10.04Q45.41 9.78 45.40 9.64L45.40 9.64Q45.35 9.11 45.35 8.79ZM48.72 3.88L48.72 7.92Q48.72 8.96 48.92 9.42Q49.11 9.88 49.59 9.88L49.59 9.88Q49.92 9.88 50.19 9.71Q50.45 9.54 50.64 9.37L50.64 9.37L50.89 9.62Q50.77 9.82 50.55 10.04L50.55 10.04Q50.42 10.19 50.25 10.35L50.25 10.35Q49.83 10.74 49.14 10.74L49.14 10.74Q48.47 10.74 48.07 10.28Q47.67 9.83 47.67 9.02L47.67 9.02L47.67 3.88L46.84 3.94L46.84 3.54L47.67 3.30L47.60 1.60L48.78 1.27L48.72 3.31L50.51 3.29L50.25 3.91L48.72 3.88ZM52.06 0.98L52.06 0.98Q52.06 0.68 52.26 0.48Q52.46 0.27 52.79 0.24L52.79 0.24Q53.09 0.24 53.31 0.46L53.31 0.46Q53.52 0.67 53.52 0.97L53.52 0.97Q53.52 1.27 53.33 1.47Q53.13 1.67 52.79 1.70L52.79 1.70Q52.51 1.70 52.27 1.49L52.27 1.49Q52.06 1.25 52.06 0.98ZM53.32 5.03L53.32 7.82L53.37 10.07L54.18 10.22L54.18 10.57L52.79 10.53L51.40 10.57L51.40 10.22L52.23 10.07L52.27 7.83L52.27 6.33L52.20 3.97L51.29 3.82L51.29 3.47Q51.59 3.43 51.87 3.39Q52.14 3.35 52.19 3.34L52.19 3.34L53.08 3.11L53.34 3.11L53.32 5.03ZM61.06 3.62L60.49 3.77Q60.19 4.48 59.80 5.53Q59.41 6.58 59.17 7.22L59.17 7.22Q58.86 8.11 58.59 8.92L58.59 8.92Q58.39 9.50 58.01 10.69L58.01 10.69L56.98 10.69L55.77 7.24Q55.32 5.91 55.02 5.09L55.02 5.09Q54.87 4.67 54.52 3.78L54.52 3.78L53.87 3.62L53.87 3.28L55.18 3.31L56.49 3.28L56.49 3.62L55.80 3.77Q56.00 4.53 56.21 5.25Q56.43 5.98 56.70 6.84L56.70 6.84L57.68 9.89L58.63 6.84L59.49 3.78L58.82 3.62L58.82 3.28L59.94 3.31L61.06 3.28L61.06 3.62ZM66.81 8.52L67.18 8.81Q66.79 9.56 65.90 10.16L65.90 10.16Q65.44 10.45 64.98 10.59Q64.53 10.74 64.01 10.74L64.01 10.74Q62.45 10.74 61.57 9.78Q60.69 8.83 60.69 7.11L60.69 7.11Q60.69 5.46 61.73 4.28Q62.77 3.11 64.25 3.11L64.25 3.11Q65.53 3.11 66.23 3.81L66.23 3.81Q66.96 4.48 66.96 5.71L66.96 5.71L67.01 6.23L61.83 6.23L61.81 6.47L61.81 7.01Q61.81 8.30 62.48 9.09Q63.15 9.88 64.29 9.88L64.29 9.88Q64.75 9.88 65.13 9.77Q65.51 9.66 65.85 9.43Q66.20 9.20 66.44 8.96Q66.68 8.72 66.81 8.52L66.81 8.52ZM61.90 5.64L61.90 5.64L65.17 5.58L65.83 5.53Q65.83 4.62 65.42 4.16Q65.02 3.69 64.23 3.69L64.23 3.69Q63.18 3.69 62.48 4.48L62.48 4.48Q62.11 4.90 61.90 5.64ZM76.36 3.28L76.36 8.09L76.48 10.07L77.28 10.22L77.28 10.57L75.79 10.53L74.31 10.57L74.31 10.22L75.11 10.07Q75.14 9.98 75.17 9.79Q75.19 9.59 75.19 9.25L75.19 9.25L75.23 8.09L75.23 3.28L75.11 1.93Q74.18 1.93 73.37 2.05L73.37 2.05Q73.15 2.09 72.88 2.13Q72.62 2.18 72.53 2.23L72.53 2.23L72.04 3.11L71.68 2.99L71.94 2.14Q71.95 2.11 72.01 1.84Q72.07 1.57 72.12 1.27L72.12 1.27L79.47 1.27Q79.53 1.66 79.56 1.79Q79.59 1.93 79.66 2.14L79.66 2.14L79.94 2.98L79.57 3.11L79.13 2.25Q79.07 2.22 78.75 2.16Q78.44 2.10 78.26 2.06L78.26 2.06Q77.83 1.99 77.43 1.96Q77.03 1.93 76.49 1.93L76.49 1.93L76.36 3.28ZM86.36 6.92L86.36 6.92Q86.36 8.58 85.33 9.66Q84.31 10.74 82.71 10.74L82.71 10.74Q81.13 10.74 80.14 9.66L80.14 9.66Q79.67 9.14 79.43 8.45Q79.19 7.76 79.19 6.92L79.19 6.92Q79.19 5.27 80.22 4.19Q81.25 3.11 82.83 3.11L82.83 3.11Q84.43 3.11 85.39 4.18Q86.36 5.25 86.36 6.92ZM85.24 6.92L85.24 6.92Q85.24 5.55 84.51 4.62Q83.77 3.68 82.69 3.68L82.69 3.68Q81.58 3.68 80.94 4.59Q80.31 5.49 80.31 6.92L80.31 6.92Q80.31 7.64 80.49 8.21Q80.68 8.78 81.05 9.26L81.05 9.26Q81.76 10.16 82.86 10.16L82.86 10.16Q83.95 10.16 84.60 9.26Q85.24 8.36 85.24 6.92ZM92.77 3.11L92.76 5.61L92.76 7.94L92.77 9.51Q92.77 10.06 92.82 10.07L92.82 10.07L93.60 10.22L93.62 10.57L92.90 10.53L92.17 10.53L91.65 10.56L91.66 8.98Q91.14 9.87 90.46 10.30Q89.79 10.74 89.04 10.74L89.04 10.74Q88.13 10.74 87.55 10.13Q86.97 9.52 86.97 8.54L86.97 8.54L86.97 5.95L86.90 3.97L86.00 3.82L86.00 3.47Q86.23 3.47 86.42 3.44Q86.61 3.41 86.92 3.34L86.92 3.34Q87.41 3.26 87.82 3.11L87.82 3.11L88.07 3.11L88.02 5.53L88.02 7.49Q88.02 8.09 88.10 8.53Q88.18 8.96 88.37 9.27L88.37 9.27Q88.74 9.88 89.54 9.88L89.54 9.88Q90.51 9.88 91.10 9.06L91.10 9.06Q91.66 8.21 91.66 6.97L91.66 6.97L91.66 5.95L91.60 3.97L90.70 3.82L90.70 3.47Q90.91 3.47 91.11 3.44Q91.30 3.41 91.60 3.34L91.60 3.34Q92.10 3.25 92.51 3.11L92.51 3.11L92.77 3.11ZM99.14 8.86L99.14 8.86L99.47 9.15Q99.11 9.64 98.35 10.19Q97.59 10.74 96.62 10.74L96.62 10.74Q95.14 10.74 94.22 9.78Q93.31 8.83 93.31 7.23L93.31 7.23Q93.31 5.50 94.46 4.31Q95.62 3.11 97.32 3.11L97.32 3.11Q98.07 3.11 98.61 3.30L98.61 3.30L99.14 3.47L98.68 5.03L98.32 4.96L98.32 4.25Q98.23 4.17 97.77 3.97Q97.32 3.77 96.81 3.77L96.81 3.77Q95.70 3.77 95.07 4.60Q94.44 5.43 94.44 6.85L94.44 6.85Q94.44 8.28 95.12 9.08Q95.81 9.88 97.05 9.88L97.05 9.88Q97.81 9.88 98.37 9.50L98.37 9.50Q98.63 9.32 98.83 9.16Q99.02 9.00 99.14 8.86ZM106.02 5.33L106.02 7.82L106.09 10.07L106.92 10.22L106.92 10.57L105.48 10.53L104.93 10.57L104.93 10.22L104.96 10.07L104.96 6.04Q104.96 4.98 104.58 4.47Q104.20 3.97 103.33 3.97L103.33 3.97Q102.41 3.97 101.88 4.71Q101.35 5.46 101.35 6.68L101.35 6.68L101.35 7.82L101.40 10.07L102.21 10.22L102.21 10.57L100.82 10.53L99.43 10.57L99.43 10.22L100.25 10.07L100.30 7.83L100.30 3.31L100.23 0.95L99.32 0.81L99.32 0.45L100.22 0.32Q100.54 0.26 101.11 0.10L101.11 0.10L101.37 0.10L101.35 2.01L101.35 4.42Q101.81 3.85 102.48 3.48Q103.15 3.11 103.86 3.11L103.86 3.11Q104.82 3.11 105.42 3.72Q106.02 4.33 106.02 5.33L106.02 5.33Z"></path></g><defs data-v-fde0c5aa=""><linearGradient data-v-fde0c5aa="" gradientTransform="rotate(25)" id="70404983-d2f8-4aec-be45-b2b2ea5b35e7" x1="0%" y1="0%" x2="100%" y2="0%"><stop data-v-fde0c5aa="" offset="0%" stop-color="#177775" stop-opacity="1"></stop><stop data-v-fde0c5aa="" offset="100%" stop-color="#28D2BF" stop-opacity="1"></stop></linearGradient></defs><g data-v-fde0c5aa="" id="785e1d3a-c76a-4992-8588-28355463cfd0" stroke="none" fill="url(#70404983-d2f8-4aec-be45-b2b2ea5b35e7)" transform="matrix(0.7101034254833049,0,0,0.7101034254833049,37.49972573458334,119.66722100435862)"><path d="M86.026 47.116c-2.404-2.744-7.647-4.449-13.682-4.449-.554 0-1.12.021-1.689.052 2.097-6.186 2.168-12.485-.018-15.881l-.307-.478-.551-.133A8.638 8.638 0 0067.751 26c-3.386 0-8.352 1.748-13.077 5.467-1.865-6.324-5.487-11.57-9.267-13.083l-.526-.21-.526.21c-3.847 1.539-7.534 6.943-9.367 13.417C30.137 27.849 24.975 26 21.486 26a8.57 8.57 0 00-2.027.227l-.551.133-.307.478c-2.183 3.392-2.115 9.681-.025 15.86-.333-.011-.671-.031-.999-.031-6.035 0-11.278 1.705-13.683 4.449l-.373.426.023.566c.314 7.562 12.757 19.15 27.493 19.15 4.672 0 9.263-1.138 13.668-3.356l.176.159.234-.211c4.435 2.252 9.061 3.408 13.769 3.408h.001c14.736 0 27.178-11.588 27.491-19.15l.023-.566-.373-.426zm-18.274-18.28c.276 0 .539.015.786.044 1.335 2.749 1.251 8.356-1.017 14.174-4.096.625-8.366 2.077-12.282 4.573 1.16-5.01.822-9.561.263-12.689-.024-.137-.056-.271-.083-.407 4.355-3.75 9.137-5.695 12.333-5.695zm-30.986 8.603c.311.352.619.71.918 1.083 2.194 2.734 4.454 6.555 5.485 11.409a29.137 29.137 0 00-.505 5.206 29.3 29.3 0 00-4.317-4.748c-1.853-4.854-1.961-9.487-1.581-12.95zm16.169-.506c.452 3.559.422 8.497-1.607 13.67a29.468 29.468 0 00-4.747 5.513 29.173 29.173 0 00-.513-6.185c1.031-4.854 3.292-8.674 5.486-11.408a29.37 29.37 0 011.381-1.59zM40.939 60.145c-10.124-2.414-15.377-9.338-17.872-14.113 3.755.702 8.518 2.299 12.801 5.855 1.107 2.748 2.734 5.547 5.071 8.258zm12.87-8.051c4.061-3.458 8.581-5.122 12.279-5.909-2.467 4.657-7.541 11.239-17.106 13.771 2.193-2.583 3.748-5.244 4.827-7.862zm-8.928-30.827c2.699 1.477 5.908 6.148 7.419 12.266a33.416 33.416 0 00-2.957 3.215 31.097 31.097 0 00-4.725 8.139 31.072 31.072 0 00-4.724-8.138 33.428 33.428 0 00-2.534-2.808c1.467-6.32 4.761-11.165 7.521-12.674zM20.7 28.88c3.22-.383 8.708 1.701 13.563 6.041l-.003.015c-.555 3.104-.89 7.61.238 12.574-4.098-2.57-8.575-4.017-12.824-4.569-2.227-5.777-2.3-11.33-.974-14.061zM6.435 48.574c1.777-1.589 5.733-3.072 11.142-3.072.557 0 1.281.02 2.133.086.088.196.17.393.262.588 2.456 5.194 8.214 13.741 20.091 16.655-2.952 1.057-5.973 1.594-9.024 1.594C17.65 64.424 7.324 54.329 6.435 48.574zm52.449 15.85c-3.145 0-6.256-.57-9.293-1.691 11.6-3.007 17.249-11.423 19.677-16.557.082-.173.154-.35.233-.524a28.73 28.73 0 012.844-.15c5.407 0 9.363 1.484 11.141 3.072-.889 5.756-11.215 15.85-24.602 15.85z"></path></g><defs data-v-fde0c5aa=""><!----></defs><g data-v-fde0c5aa="" id="893a1b14-dbfe-4f22-bc64-449fa6a6120d" fill="#000000" transform="matrix(0.696708285826966,0,0,0.696708285826966,111.63597095672351,153.41460659346777)"><path d="M3.14 14.40L0.31 14.40L0.35 14.17L1.49 13.96L2.06 6.36L0.80 6.14L0.85 5.89L3.03 5.89L3.51 7.18L5.66 12.84L8.11 6.88L8.52 5.89L10.75 5.89L10.72 6.14L9.54 6.34L9.92 14.01L11.15 14.12L11.14 14.40L7.98 14.40L8.02 14.17L9.19 13.96L8.80 6.41L5.62 13.99L5.28 14.05L2.49 6.53L1.95 14.01L3.19 14.12L3.14 14.40ZM22.91 6.98L21.54 10.75L24.23 10.75L22.91 6.98ZM21.59 14.40L18.86 14.40L18.89 14.11L19.87 13.90L22.86 5.82L23.22 5.73L26.06 13.95L26.96 14.08L26.91 14.39L24.11 14.39L24.17 14.10L25.31 13.90L24.36 11.13L21.40 11.13L20.39 13.95L21.65 14.08L21.59 14.40ZM34.66 13.60L34.66 13.60L34.86 11.66L35.19 11.71L35.38 13.21Q35.61 13.64 36.14 13.89Q36.67 14.14 37.27 14.14L37.27 14.14Q37.95 14.14 38.43 13.74Q38.91 13.33 38.91 12.61L38.91 12.61Q38.91 12.20 38.69 11.83Q38.48 11.46 38.13 11.18Q37.79 10.90 37.37 10.63Q36.95 10.36 36.53 10.07Q36.11 9.79 35.77 9.48Q35.42 9.17 35.21 8.75Q34.99 8.33 34.99 7.84L34.99 7.84Q34.99 6.88 35.69 6.29Q36.38 5.71 37.26 5.71L37.26 5.71Q37.85 5.71 38.39 5.90Q38.93 6.09 39.26 6.46L39.26 6.46L39.03 8.58L38.72 8.53L38.53 6.87Q38.35 6.54 37.93 6.32Q37.52 6.10 37.08 6.10L37.08 6.10Q36.49 6.10 36.08 6.48Q35.66 6.87 35.66 7.52L35.66 7.52Q35.66 7.96 35.89 8.35Q36.11 8.74 36.46 9.03Q36.81 9.32 37.24 9.61Q37.66 9.89 38.09 10.17Q38.51 10.45 38.87 10.75Q39.22 11.05 39.44 11.45Q39.66 11.85 39.66 12.29L39.66 12.29Q39.66 13.28 38.91 13.93Q38.16 14.57 36.91 14.57L36.91 14.57Q36.20 14.57 35.60 14.30Q35 14.03 34.66 13.60ZM47.39 13.60L47.39 13.60L47.59 11.66L47.92 11.71L48.11 13.21Q48.34 13.64 48.87 13.89Q49.40 14.14 50.00 14.14L50.00 14.14Q50.68 14.14 51.16 13.74Q51.64 13.33 51.64 12.61L51.64 12.61Q51.64 12.20 51.42 11.83Q51.21 11.46 50.86 11.18Q50.52 10.90 50.10 10.63Q49.68 10.36 49.26 10.07Q48.84 9.79 48.50 9.48Q48.15 9.17 47.94 8.75Q47.72 8.33 47.72 7.84L47.72 7.84Q47.72 6.88 48.42 6.29Q49.11 5.71 49.99 5.71L49.99 5.71Q50.58 5.71 51.12 5.90Q51.66 6.09 51.99 6.46L51.99 6.46L51.76 8.58L51.45 8.53L51.26 6.87Q51.08 6.54 50.66 6.32Q50.24 6.10 49.81 6.10L49.81 6.10Q49.22 6.10 48.81 6.48Q48.39 6.87 48.39 7.52L48.39 7.52Q48.39 7.96 48.61 8.35Q48.84 8.74 49.19 9.03Q49.54 9.32 49.96 9.61Q50.39 9.89 50.81 10.17Q51.24 10.45 51.59 10.75Q51.95 11.05 52.17 11.45Q52.39 11.85 52.39 12.29L52.39 12.29Q52.39 13.28 51.64 13.93Q50.89 14.57 49.64 14.57L49.64 14.57Q48.93 14.57 48.33 14.30Q47.73 14.03 47.39 13.60ZM64.17 6.98L62.80 10.75L65.49 10.75L64.17 6.98ZM62.85 14.40L60.12 14.40L60.16 14.11L61.13 13.90L64.12 5.82L64.48 5.73L67.32 13.95L68.22 14.08L68.17 14.39L65.37 14.39L65.43 14.10L66.57 13.90L65.62 11.13L62.67 11.13L61.65 13.95L62.91 14.08L62.85 14.40ZM75.94 10.27L75.94 10.27Q75.94 9.64 76.11 9.00Q76.28 8.36 76.63 7.78Q76.98 7.21 77.46 6.75Q77.94 6.30 78.60 6.04Q79.27 5.77 80.03 5.77L80.03 5.77Q80.77 5.77 81.47 5.94Q82.17 6.11 82.65 6.47L82.65 6.47L82.44 8.64L82.13 8.61L81.92 6.99Q81.66 6.65 81.11 6.41Q80.56 6.17 79.80 6.17L79.80 6.17Q78.39 6.17 77.56 7.27Q76.72 8.37 76.72 10.07L76.72 10.07Q76.72 10.69 76.83 11.25Q76.94 11.81 77.19 12.34Q77.44 12.87 77.82 13.25Q78.20 13.63 78.79 13.86Q79.38 14.09 80.11 14.09L80.11 14.09Q81.17 14.09 81.89 13.59L81.89 13.59L81.90 11.03L80.25 10.86L80.29 10.60L83.58 10.60L83.53 10.86L82.61 11.01L82.61 13.86Q81.96 14.25 81.22 14.39Q80.49 14.53 79.40 14.53L79.40 14.53Q78.70 14.53 78.06 14.23Q77.43 13.93 76.96 13.39Q76.49 12.85 76.22 12.04Q75.94 11.23 75.94 10.27ZM92.47 6.36L91.25 6.18L91.29 5.89L97.49 5.89L97.28 8.07L96.96 8.03L96.83 6.24L93.18 6.24L93.18 9.89L95.47 9.89L95.72 8.94L96.09 8.89L95.87 11.55L95.52 11.61L95.41 10.26L93.18 10.26L93.18 14.03L97.02 14.03L97.53 12.19L97.81 12.26L97.60 14.40L91.27 14.40L91.31 14.11L92.47 13.90L92.47 6.36ZM115.49 8.09L115.42 5.89L122.49 5.89L122.25 8.16L121.91 8.12L121.79 6.24L119.25 6.24L119.25 13.90L120.46 14.08L120.39 14.40L117.29 14.40L117.33 14.11L118.52 13.90L118.52 6.24L116.09 6.24L115.85 8.15L115.49 8.09ZM131.42 6.33L130.19 6.16L130.21 5.89L133.33 5.89L133.29 6.16L132.14 6.32L132.14 9.95L137.05 9.95L137.05 6.33L135.79 6.16L135.84 5.89L138.95 5.89L138.89 6.16L137.75 6.32L137.75 13.95L139.00 14.08L138.95 14.40L135.86 14.40L135.91 14.11L137.05 13.90L137.05 10.36L132.14 10.36L132.14 13.95L133.41 14.08L133.33 14.40L130.25 14.40L130.28 14.11L131.42 13.90L131.42 6.33ZM147.94 6.36L146.71 6.18L146.76 5.89L152.95 5.89L152.74 8.07L152.43 8.03L152.30 6.24L148.65 6.24L148.65 9.89L150.94 9.89L151.19 8.94L151.56 8.89L151.33 11.55L150.99 11.61L150.88 10.26L148.65 10.26L148.65 14.03L152.49 14.03L153.00 12.19L153.28 12.26L153.07 14.40L146.73 14.40L146.77 14.11L147.94 13.90L147.94 6.36ZM162.80 6.18L162.80 10.11L164.36 10.11Q165.04 9.86 165.50 9.28Q165.96 8.70 165.96 8.02L165.96 8.02Q165.96 7.11 165.34 6.63Q164.72 6.15 163.63 6.15L163.63 6.15L162.80 6.18ZM164.18 14.40L160.99 14.40L161.03 14.11L162.10 13.90L162.10 6.51L161.01 6.37L161.07 6.13Q162.89 5.83 163.97 5.83L163.97 5.83Q164.74 5.83 165.35 6.05Q165.96 6.27 166.33 6.73Q166.71 7.19 166.71 7.83L166.71 7.83Q166.71 8.57 166.28 9.14Q165.85 9.72 164.82 10.23L164.82 10.23L164.82 10.23L166.14 12.19Q166.85 13.23 167.20 13.58Q167.54 13.92 167.92 14.05L167.92 14.05L168.25 14.16L168.21 14.42Q167.92 14.52 167.58 14.52L167.58 14.52Q167.29 14.52 167.04 14.40Q166.78 14.28 166.54 14.01Q166.30 13.75 166.11 13.48Q165.93 13.22 165.66 12.77L165.66 12.77L164.27 10.49L162.80 10.49L162.80 13.95L164.25 14.08L164.18 14.40ZM180.00 6.98L178.64 10.75L181.32 10.75L180.00 6.98ZM178.68 14.40L175.96 14.40L175.99 14.11L176.96 13.90L179.96 5.82L180.32 5.73L183.16 13.95L184.06 14.08L184.00 14.39L181.21 14.39L181.27 14.10L182.40 13.90L181.45 11.13L178.50 11.13L177.49 13.95L178.75 14.08L178.68 14.40ZM195.16 14.40L191.75 14.40L191.78 14.11L192.86 13.90L192.86 6.51L191.75 6.36L191.82 6.12Q191.99 6.09 192.44 6.02Q192.88 5.94 193.11 5.91Q193.34 5.88 193.75 5.84Q194.16 5.81 194.58 5.81L194.58 5.81Q195.27 5.81 195.86 5.96Q196.44 6.10 196.91 6.40Q197.37 6.69 197.63 7.18Q197.89 7.66 197.89 8.29L197.89 8.29Q197.89 8.90 197.61 9.43Q197.33 9.97 196.86 10.33Q196.40 10.69 195.80 10.90Q195.20 11.10 194.56 11.10L194.56 11.10Q194.29 11.10 194.22 11.09L194.22 11.09L194.15 10.80L194.52 10.78Q195.19 10.75 195.68 10.55Q196.18 10.36 196.47 10.03Q196.76 9.70 196.90 9.30Q197.04 8.90 197.04 8.43L197.04 8.43Q197.04 7.98 196.87 7.57Q196.70 7.16 196.38 6.83Q196.06 6.50 195.54 6.31Q195.02 6.11 194.37 6.11L194.37 6.11L193.61 6.15L193.61 13.95L195.21 14.08L195.16 14.40ZM206.51 6.35L205.56 6.15L205.59 5.90L208.44 5.90L208.41 6.15L207.28 6.32L209.42 10.49L211.54 6.34L210.27 6.14L210.29 5.89L212.95 5.89L212.93 6.14L212.05 6.32L209.67 11.05L209.67 13.94L210.90 14.08L210.85 14.40L207.70 14.40L207.74 14.11L208.94 13.90L208.94 11.05L206.51 6.35Z"></path></g></svg>